<svg enable-background="new 0 0 256 256" height="512" viewBox="0 0 256 256" width="512" xmlns="http://www.w3.org/2000/svg"><g fill="#46baf9"><path d="m93.736 72.081c-7.978 2.315-12.993 11.797-15.045 16.518-.304.7.484 1.378 1.123.959 4.277-2.806 11.193-4.915 17.122-6.846 3.938-1.282 5.132-6.268 2.203-9.197-1.412-1.412-3.484-1.991-5.403-1.434z"/><path d="m62.822 67.904c5.69 4.035 7.25 12.786 7.677 17.319.072.76-.883 1.148-1.366.557-2.786-3.407-7.743-6.948-11.976-10.091-2.883-2.141-2.489-6.568.727-8.168 1.59-.791 3.49-.644 4.938.383z"/><path d="m80.445 54.243c-4.178 4.562-3.894 12.44-3.417 16.449.08.672.98.83 1.288.227 1.778-3.474 5.414-7.471 8.496-10.987 2.099-2.395.929-6.159-2.157-6.945-1.527-.387-3.146.095-4.21 1.256z"/><path d="m253.494 27.03c.027-1.854-2.012-2.95-3.602-1.995s-4.003 1.726-7.65 1.726c-9.582 0-19.164 5.323-23.423 13.841 0 0-6.388-11.711-20.229-11.711-5.019 0-8.218-.7-10.256-1.592-1.729-.756-3.623.664-3.289 2.521 1.284 7.13 6.393 18.701 25.257 25.688 0 0-1.288 17.542-13.077 34.725-7.061-8.573-9.099-24.181-12.475-12.367-1.952 6.83-1.667 14.555-.787 20.92.484 3.496-1.065 6.95-3.939 8.997-4.478 3.189-9.612 6.055-15.503 8.411-41.458 16.582-106.122-53.607-159.123 16.819-2.968 3.944-3.696 9.146-1.998 13.78 5.781 15.769 24.427 50.649 77.27 55.71 21.743 2.082 43.257-1.623 62.761-10.143 6.933 5.213 15.808 9.656 29.625 10.831 3.867.329 6.912-3.253 6.017-7.03-1.255-5.295-3.5-12.869-7.302-20.717 6.285-4.907 12.173-10.397 17.561-16.442 20.743-23.268 40.028-57.472 37.473-102.964-.001.001 26.398-9.395 26.689-29.008z"/><path d="m179.072 196.162c-3.045-12.848-11.891-39.109-34.78-50.159l-36.199 4.259s-5.323 15.97 11.711 23.423c15.866 6.941 21.573 26.813 53.25 29.507 3.869.328 6.913-3.254 6.018-7.03z"/></g><path d="m159.203 156.96c5.409 5.639 9.498 12.149 12.567 18.485 6.285-4.907 12.173-10.397 17.561-16.442 16.872-18.926 32.778-45.088 36.753-78.674-16.585 41.354-40.625 64.648-66.881 76.631z" fill="#d9f3ff"/><path d="m119.805 173.684c-4.571-2-7.522-4.615-9.408-7.368-52.524 5.991-64.88-17.584-81.089-26.701-10.97-6.171-20.609-4.393-26.086-2.346-.985 3.065-.961 6.418.177 9.523 5.78 15.768 24.426 50.651 77.27 55.712 21.743 2.082 43.257-1.623 62.761-10.143-8.962-6.739-14.679-14.763-23.625-18.677z" fill="#d9f3ff"/><path d="m104.819 202.466c4.024 5.109 9.55 10.104 17.774 14.654 3.396 1.879 7.638-.148 8.363-3.961.809-4.257 1.633-10.093 1.802-16.694-9.029 3.028-18.394 5.061-27.939 6.001z" fill="#46baf9"/><path d="m173.557 205.713c-.237 0-.475-.01-.713-.03-21.417-1.821-31.409-11.149-40.225-19.379-4.441-4.146-8.636-8.062-13.815-10.328-15.128-6.619-15.171-20.231-13.081-26.504.437-1.31 1.854-2.017 3.162-1.581 1.307.436 2.015 1.847 1.584 3.154-.189.583-4.32 13.937 10.338 20.35 5.962 2.609 10.461 6.808 15.223 11.254 8.625 8.052 17.544 16.378 37.237 18.052 1.024.086 1.996-.313 2.671-1.096.688-.798.944-1.843.701-2.866-7.531-31.777-24.18-44.017-33.434-48.484-1.243-.601-1.765-2.095-1.165-3.338s2.095-1.765 3.338-1.165c10.054 4.854 28.117 18.042 36.125 51.833.607 2.564-.058 5.287-1.779 7.284-1.576 1.83-3.793 2.844-6.167 2.844z"/><path d="m173.557 205.713c-.237 0-.475-.01-.713-.03-11.66-.992-21.151-4.324-29.738-10.461-19.868 8.42-41.504 11.798-62.674 9.771-54.59-5.228-73.697-41.84-79.378-57.339-2.011-5.484-1.133-11.519 2.347-16.144 34.571-45.938 73.825-33.912 108.457-23.301 19.189 5.879 37.314 11.431 51.736 5.663 5.404-2.161 10.444-4.896 14.981-8.126 2.15-1.531 3.266-4.067 2.913-6.618-1.172-8.467-.883-15.852.859-21.949.806-2.822 1.892-5.851 4.591-6.063 2.911-.212 4.317 2.801 6.45 7.388 1.048 2.252 2.275 4.892 3.748 7.278 7.535-12.27 9.83-24.203 10.458-28.642-18.875-7.636-23.777-20.033-25.009-26.877-.315-1.749.354-3.519 1.748-4.619 1.42-1.12 3.337-1.364 5.003-.635 1.442.631 4.218 1.383 9.254 1.383 10.335 0 16.869 5.808 20.071 9.669 5.189-7.181 14.202-11.799 23.58-11.799 2.709 0 4.85-.461 6.363-1.369 1.533-.921 3.442-.943 4.986-.055 1.531.881 2.429 2.462 2.403 4.23-.131 8.839-5.141 17.086-14.488 23.848-4.842 3.503-9.627 5.742-12.115 6.788 1.682 38.009-11.162 72.643-38.193 102.964-4.972 5.578-10.456 10.787-16.321 15.506 3.447 7.527 5.495 14.631 6.628 19.412.607 2.564-.058 5.287-1.779 7.284-1.577 1.829-3.794 2.843-6.168 2.843zm-30.127-15.853c.533 0 1.062.17 1.503.502 8.224 6.183 16.962 9.371 28.334 10.338 1.025.089 1.996-.313 2.671-1.096.688-.798.944-1.843.701-2.866-1.166-4.921-3.348-12.42-7.12-20.203-.514-1.061-.217-2.336.711-3.061 6.222-4.857 12.021-10.286 17.234-16.135 26.545-29.776 38.941-63.812 36.843-101.16-.062-1.107.613-2.124 1.658-2.496.245-.087 24.546-8.982 25.023-26.452-2.204 1.35-5.174 2.029-8.747 2.029-8.947 0-17.46 5.007-21.186 12.459-.417.833-1.261 1.365-2.191 1.381-.959.021-1.794-.485-2.24-1.302-.231-.418-5.909-10.409-18.034-10.409-4.605 0-8.313-.573-11.027-1.703 1.412 7.314 6.685 17.208 23.606 23.476 1.044.387 1.707 1.417 1.625 2.527-.055.744-1.476 18.417-13.509 35.956-.444.647-1.167 1.049-1.952 1.083-.791.03-1.54-.302-2.039-.908-2.819-3.422-4.828-7.74-6.441-11.209-.434-.934-.951-2.044-1.424-2.968-.086.266-.178.567-.275.908-1.55 5.424-1.79 12.116-.714 19.89.608 4.402-1.294 8.761-4.966 11.376-4.86 3.461-10.252 6.387-16.024 8.696-16.06 6.423-35.002.62-55.058-5.524-17.018-5.214-34.616-10.606-52.137-9.301-19.717 1.468-36.354 11.552-50.86 30.828-2.456 3.264-3.072 7.531-1.648 11.417 5.355 14.609 23.399 49.125 75.161 54.082 20.793 1.993 42.069-1.448 61.522-9.946.321-.14.661-.209 1-.209zm110.064-162.83h.01z"/><path d="m171.77 177.945c-.189 0-.378-.021-.566-.065-.736-.171-1.354-.665-1.684-1.345-3.383-6.983-7.461-12.986-12.122-17.845-.561-.584-.804-1.405-.651-2.2.152-.796.681-1.468 1.417-1.805 28.757-13.125 50.827-38.455 65.599-75.287.467-1.163 1.723-1.8 2.938-1.492 1.215.31 2.012 1.471 1.865 2.716-3.452 29.169-16.024 56.1-37.369 80.043-5.413 6.072-11.432 11.707-17.889 16.749-.443.348-.986.531-1.538.531zm-8.454-20.171c3.454 4.02 6.567 8.641 9.294 13.797 5.325-4.359 10.312-9.136 14.854-14.232 15.559-17.453 26.296-36.521 32.069-56.896-14.155 26.65-32.998 45.878-56.217 57.331z"/><path d="m125.325 220.336c-1.355 0-2.705-.344-3.942-1.029-7.73-4.277-13.791-9.28-18.527-15.294-.565-.718-.694-1.687-.336-2.527s1.146-1.418 2.055-1.508c9.252-.912 18.467-2.892 27.388-5.883.774-.26 1.624-.125 2.281.359.656.485 1.034 1.259 1.013 2.075-.181 7.058-1.103 13.193-1.845 17.096-.492 2.588-2.211 4.802-4.598 5.923-1.121.527-2.308.788-3.489.788zm-15.52-15.939c3.811 3.982 8.426 7.453 13.999 10.536.897.497 1.949.529 2.886.09.954-.448 1.614-1.297 1.81-2.33.58-3.051 1.275-7.532 1.602-12.752-6.659 2.029-13.456 3.521-20.297 4.456z"/><path d="m92.451 205.565c-4.014 0-8.024-.19-12.02-.572-54.591-5.229-73.698-41.841-79.379-57.34-1.303-3.554-1.377-7.513-.21-11.147.234-.728.789-1.309 1.505-1.577 5.324-1.99 16.065-4.311 28.188 2.509 3.764 2.117 7.281 4.938 11.005 7.924 12.789 10.256 28.704 23.017 68.574 18.472.917-.103 1.823.307 2.346 1.071 1.842 2.689 4.651 4.874 8.347 6.491 5.963 2.609 10.462 6.808 15.225 11.254 2.766 2.582 5.626 5.252 8.901 7.714.71.534 1.084 1.405.98 2.289-.103.883-.667 1.645-1.482 2-16.494 7.204-34.254 10.912-51.98 10.912zm-87.159-66.37c-.483 2.244-.33 4.596.455 6.737 5.355 14.61 23.399 49.126 75.161 54.083 19.432 1.863 39.279-1.02 57.668-8.338-2.112-1.786-4.055-3.6-5.956-5.374-4.442-4.146-8.638-8.062-13.817-10.329-4.015-1.757-7.223-4.114-9.556-7.018-40.907 4.301-58.184-9.549-70.835-19.696-3.56-2.855-6.922-5.551-10.329-7.468-9.157-5.149-17.269-4.387-22.791-2.597z"/><path d="m199.125 95.803c-.808 0-1.601-.391-2.083-1.114l-2.129-3.194c-.766-1.149-.456-2.701.693-3.467s2.701-.456 3.467.693l2.129 3.194c.766 1.149.456 2.701-.693 3.467-.426.285-.907.421-1.384.421z"/><path d="m80.115 145.619c-.191 0-.386-.022-.58-.068-1.343-.319-2.173-1.667-1.854-3.01.405-1.702-.651-3.417-2.353-3.821-.822-.196-1.674-.06-2.397.385-.722.444-1.227 1.143-1.423 1.968-.32 1.343-1.666 2.174-3.011 1.854-1.343-.319-2.173-1.667-1.854-3.011.505-2.124 1.807-3.924 3.666-5.068s4.053-1.497 6.176-.991c4.384 1.043 7.102 5.458 6.06 9.842-.273 1.147-1.299 1.92-2.43 1.92z"/><path d="m79.395 92.188c-.749 0-1.492-.261-2.101-.774-1.117-.941-1.476-2.473-.895-3.811 2.431-5.596 7.825-15.365 16.641-17.923 2.773-.806 5.787-.012 7.868 2.067 1.996 1.996 2.794 4.825 2.137 7.569-.657 2.742-2.651 4.9-5.333 5.773l-1.505.488c-5.334 1.727-11.38 3.684-15.019 6.072-.553.361-1.175.539-1.793.539zm15.038-17.706c-4.92 1.428-8.669 6.272-11.067 10.398 3.53-1.545 7.579-2.855 11.299-4.06l1.497-.485c1.031-.336 1.767-1.132 2.019-2.186.253-1.055-.042-2.1-.81-2.867-.79-.789-1.915-1.095-2.938-.8z"/><path d="m69.726 88.568c-.958 0-1.887-.424-2.527-1.205-2.351-2.875-6.645-6.052-10.433-8.854l-1.098-.813c-2.057-1.527-3.15-3.962-2.924-6.514.227-2.552 1.732-4.758 4.027-5.899 2.421-1.204 5.294-.981 7.498.582 6.448 4.573 8.231 13.944 8.72 19.123.136 1.442-.672 2.781-2.011 3.331-.409.168-.833.249-1.252.249zm-1.715-3.11h.01zm-7.976-15.943c-.354 0-.708.081-1.037.245-1.046.52-1.239 1.477-1.273 1.864s-.013 1.362.924 2.057l1.091.808c2.454 1.815 5.107 3.777 7.427 5.794-.881-3.725-2.569-8.057-5.79-10.341-.4-.282-.87-.427-1.342-.427z"/><path d="m77.714 73.796c-.189 0-.38-.017-.571-.051-1.387-.249-2.431-1.356-2.598-2.756-.55-4.63-.755-13.181 4.056-18.434 1.689-1.845 4.245-2.607 6.669-1.99 2.299.585 4.092 2.286 4.795 4.551s.189 4.681-1.375 6.464l-.804.915c-2.748 3.124-5.863 6.665-7.346 9.563-.554 1.085-1.645 1.738-2.826 1.738zm1.796-3.399h.01zm4.088-15.042c-.492 0-.968.204-1.309.576-2.109 2.303-2.824 5.837-2.982 8.979 1.515-1.955 3.229-3.902 4.827-5.719l.798-.908c.588-.671.447-1.403.359-1.686-.088-.284-.386-.968-1.252-1.188-.147-.035-.295-.054-.441-.054zm-3.153-1.112h.01z"/><path d="m93.944 195.437c-17.201 0-32.705-3.767-46.373-11.296-26.254-14.462-38.162-39.399-40.535-47.788-.196-.693-.083-1.436.308-2.04s1.024-1.01 1.736-1.114c7.33-1.074 14.548.353 21.456 4.238 3.764 2.117 7.281 4.938 11.005 7.924 12.789 10.256 28.704 23.017 68.574 18.472.917-.103 1.823.307 2.346 1.071 1.842 2.689 4.651 4.874 8.347 6.491 5.966 2.61 10.469 6.812 15.235 11.262.619.578 1.244 1.161 1.878 1.746.661.61.943 1.528.74 2.404s-.862 1.575-1.725 1.831c-15.299 4.532-29.657 6.799-42.992 6.799zm-81.124-57.565c3.683 9.641 14.956 29.656 37.164 41.889 22.077 12.161 49.41 13.933 81.29 5.285-3.957-3.669-7.817-7.036-12.47-9.071-4.015-1.757-7.223-4.114-9.556-7.018-40.902 4.301-58.183-9.549-70.835-19.696-3.56-2.855-6.922-5.551-10.329-7.468-4.96-2.789-10.075-4.107-15.264-3.921z"/><path d="m95.169 182.99c-17.405 0-32.595-3.763-45.381-11.269-16.765-9.842-25.771-24.052-30.374-34.24-.399-.883-.251-1.918.378-2.654.63-.736 1.63-1.043 2.564-.785 2.788.768 5.539 1.91 8.178 3.395 3.764 2.117 7.282 4.938 11.005 7.924 12.789 10.256 28.704 23.017 68.574 18.472.917-.103 1.823.307 2.346 1.071 1.842 2.689 4.651 4.874 8.347 6.491 2.1.918 4.162 2.106 6.301 3.631.808.576 1.199 1.575.997 2.546-.202.972-.96 1.731-1.931 1.936-10.994 2.322-21.34 3.482-31.004 3.482zm-68.333-41.864c10.874 19.576 35.919 44.35 91.741 34.749-3.91-1.746-7.04-4.068-9.33-6.917-40.902 4.301-58.183-9.549-70.835-19.696-3.56-2.855-6.922-5.551-10.329-7.468-.413-.232-.829-.455-1.247-.668z"/><path d="m171.77 177.945c-.189 0-.378-.021-.566-.065-.736-.171-1.354-.666-1.684-1.345-1.417-2.925-3.013-5.763-4.742-8.433-.747-1.153-.424-2.692.724-3.447 9.107-5.995 26.637-18.472 41.721-34.676.864-.928 2.287-1.062 3.309-.312s1.321 2.147.695 3.25c-5.49 9.665-12.229 19.001-20.028 27.75-5.413 6.072-11.432 11.707-17.889 16.749-.445.346-.988.529-1.54.529zm-1.485-10.468c.809 1.336 1.585 2.704 2.324 4.097 5.325-4.359 10.313-9.137 14.856-14.234 2.333-2.618 4.569-5.289 6.701-8.006-9.16 7.848-17.838 14.076-23.881 18.143z"/></svg>