<svg id="Layer_1" height="512" viewBox="0 0 512 512" width="512" xmlns="http://www.w3.org/2000/svg" data-name="Layer 1"><path d="m460.45 267.93c-91.39 30.51-95.75 53.81-146.24 97.58l-57.16 26.55c-97.28 12-196.37-80.02-196.37-80.02 12.06 42.48 43.7 86.49 114 115.37 0 0 33.21 16.72 77.45 15.66h.01l51.92-5.67c36.33-9.43 74.43-36.58 109.09-76.13a189.049 189.049 0 0 0 20.42-28.25c16.22-27.44 23.63-49.34 26.89-65.09z" fill="#e2e4ed"/><path d="m490.75 171.83a14.263 14.263 0 0 1 -2.43 20.23 14.765 14.765 0 0 1 -20.54-2.36 14.265 14.265 0 0 1 2.43-20.24 14.758 14.758 0 0 1 20.54 2.37z" fill="#8cb6f8"/><path d="m257.05 392.06c-97.28 12-196.37-80.02-196.37-80.02-15.47-54.46 1.24-106.42 9.94-120.82a198.733 198.733 0 0 0 13.32-25.52s-49.41-26.87-40.87-82.54c8.21-53.48-22.4-63.94-24.81-64.68 4.21 1.01 94.06 23.24 105.75 76.43 1.1 5 7.68 6.36 12.21 3.86 69.28-38.29 127.62-5.06 129.47-3.98-1.32-.57-30.93-12.63-59.12 34.87-23.85 40.18-57.46 51.25-85.48 50.13a135.226 135.226 0 0 1 -10.29 17.09c-22.06 31.62-21.05 88.14 40.1 113.23s112.68 3.92 149.23-28.19c60.19-52.87 126.09-57.02 152.85-47.93a14.359 14.359 0 0 1 9.85 13.71 105.4 105.4 0 0 1 -2.37 20.23h-.01c-91.39 30.51-95.75 53.81-146.24 97.58-12.01 10.42-16.94 17.1-15.75 38.14a7.192 7.192 0 0 0 .14.76c2.06 11.7 4.19 22.98 5.46 32.99 2.71 21.29 1.52 36.84-12.52 38.42l-15.57-7.17c-14.56-7.15-21.59-14.63-23.83-25.58-1.97-9.54-.3-21.73 3.19-38.66a88.074 88.074 0 0 0 1.72-12.35z" fill="#89a3ce"/><path d="m457.89 418.02a18.373 18.373 0 0 1 -3.13 26.06 19.031 19.031 0 0 1 -26.45-3.05 18.372 18.372 0 0 1 3.13-26.06 19.022 19.022 0 0 1 26.45 3.05z" fill="#8cb6f8"/><path d="m390.15 67.51a34.9 34.9 0 0 1 -5.94 49.5 36.135 36.135 0 0 1 -50.25-5.79 34.9 34.9 0 0 1 5.95-49.5 36.123 36.123 0 0 1 50.24 5.79z" fill="#8cb6f8"/><path d="m278.89 162.74a10.473 10.473 0 0 1 -1.78 14.85 10.837 10.837 0 0 1 -15.07-1.74 10.475 10.475 0 0 1 1.79-14.85 10.824 10.824 0 0 1 15.06 1.74z" fill="#8cb6f8"/><path d="m98.72 475.54a11.02 11.02 0 0 1 -1.87 15.63 11.4 11.4 0 0 1 -15.86-1.83 11.009 11.009 0 0 1 1.88-15.62 11.392 11.392 0 0 1 15.85 1.82z" fill="#8cb6f8"/><path d="m67.55 400.79a22.039 22.039 0 0 1 -3.75 31.25 22.808 22.808 0 0 1 -31.72-3.66 22.019 22.019 0 0 1 3.76-31.24 22.8 22.8 0 0 1 31.71 3.65z" fill="#8cb6f8"/><path d="m325.31 304.8a4.916 4.916 0 1 1 -4.99 4.91 4.949 4.949 0 0 1 4.99-4.91z" fill="#5f5f82"/><path d="m282.14 443.07c-1.97-9.54-.3-21.73 3.19-38.66l.028-.136a9.452 9.452 0 0 0 -9.737-11.274 157.712 157.712 0 0 1 -18.62-.344 88.68 88.68 0 0 1 -1.671 11.756c-3.49 16.93-5.16 29.12-3.19 38.66 2.24 10.95 9.27 18.43 23.83 25.58l15.57 7.17a13.2 13.2 0 0 0 11.5-8.672c-12.578-6.71-18.816-13.893-20.9-24.08z" fill="#6f84a3"/><path d="m148 353.947c-51.369-30.847-73.937-93.971-53.129-150.159a77.185 77.185 0 0 1 5.749-12.568 198.733 198.733 0 0 0 13.32-25.52s-49.41-26.87-40.87-82.54c3.322-21.64.287-36.234-4.662-45.993a254.569 254.569 0 0 0 -50.148-18.687c2.41.74 33.02 11.2 24.81 64.68-8.54 55.67 40.87 82.54 40.87 82.54a198.733 198.733 0 0 1 -13.32 25.52c-8.7 14.4-25.41 66.36-9.94 120.82 0 0 96.982 90.046 193.248 80.353-39.162-3.71-76.728-20.907-105.928-38.446z" fill="#6f84a3"/><g fill="#284268"><path d="m427.758 410.234a24.372 24.372 0 0 0 -4.13 34.544 25.06 25.06 0 0 0 34.814 4.033 24.368 24.368 0 0 0 4.129-34.542 25.059 25.059 0 0 0 -34.813-4.035zm28.089 20.7a12.434 12.434 0 0 1 -4.773 8.407 13.011 13.011 0 0 1 -18.08-2.066 12.261 12.261 0 0 1 -2.641-9.162 12.436 12.436 0 0 1 4.773-8.408 13.021 13.021 0 0 1 18.08 2.066 12.266 12.266 0 0 1 2.641 9.163z"/><path d="m67.482 436.774a28.03 28.03 0 0 0 4.752-39.733 28.855 28.855 0 0 0 -40.081-4.641 28.03 28.03 0 0 0 -4.753 39.734 28.858 28.858 0 0 0 40.082 4.64zm-30.716-12.142a15.9 15.9 0 0 1 -3.422-11.876 16.1 16.1 0 0 1 6.177-10.885 16.811 16.811 0 0 1 23.347 2.672 15.9 15.9 0 0 1 3.422 11.876 16.1 16.1 0 0 1 -6.177 10.881 16.808 16.808 0 0 1 -23.347-2.668z"/><path d="m79.183 468.98a17.015 17.015 0 0 0 -2.875 24.11 17.438 17.438 0 0 0 24.224 2.812 17.013 17.013 0 0 0 2.876-24.109 17.437 17.437 0 0 0 -24.225-2.813zm15.931 14.026a5.075 5.075 0 0 1 -1.95 3.426 5.4 5.4 0 0 1 -7.491-.844 4.967 4.967 0 0 1 -1.072-3.711 5.073 5.073 0 0 1 1.95-3.426 5.4 5.4 0 0 1 3.322-1.136 5.324 5.324 0 0 1 4.169 1.98 4.966 4.966 0 0 1 1.072 3.711z"/><path d="m260.143 156.268a16.467 16.467 0 0 0 -2.782 23.332 16.871 16.871 0 0 0 23.433 2.722 16.467 16.467 0 0 0 2.782-23.332 16.871 16.871 0 0 0 -23.433-2.722zm15.023 13.532a4.522 4.522 0 0 1 -1.74 3.054 4.822 4.822 0 0 1 -6.7-.752 4.42 4.42 0 0 1 -.955-3.3 4.518 4.518 0 0 1 1.74-3.053 4.824 4.824 0 0 1 2.972-1.018 4.758 4.758 0 0 1 3.727 1.771 4.419 4.419 0 0 1 .956 3.298z"/><path d="m466.524 164.721a20.269 20.269 0 0 0 -3.43 28.726 20.814 20.814 0 0 0 28.906 3.353 20.269 20.269 0 0 0 3.43-28.726 20.811 20.811 0 0 0 -28.906-3.353zm21.309 16.979a8.325 8.325 0 0 1 -3.2 5.629 8.766 8.766 0 0 1 -12.175-1.384 8.2 8.2 0 0 1 -1.766-6.122 8.325 8.325 0 0 1 3.2-5.629 8.769 8.769 0 0 1 12.175 1.383 8.2 8.2 0 0 1 1.766 6.123z"/><path d="m336.225 56.981a40.9 40.9 0 0 0 -6.946 57.992 42.2 42.2 0 0 0 58.612 6.777 40.9 40.9 0 0 0 6.945-57.992 42.194 42.194 0 0 0 -58.611-6.777zm55.412 35.7a28.982 28.982 0 0 1 -11.114 19.6 30.145 30.145 0 0 1 -41.878-4.808 28.658 28.658 0 0 1 -6.166-21.415 28.978 28.978 0 0 1 11.114-19.6 30.154 30.154 0 0 1 41.878 4.808 28.666 28.666 0 0 1 6.166 21.41z"/><path d="m37.14 82.253c-3.758 24.5 2.652 47.622 18.537 66.871a101.077 101.077 0 0 0 20.669 18.881 211.97 211.97 0 0 1 -10.857 20.109c-10.57 17.5-27.4 75.071-8.562 132.155 16.512 50.031 55.294 87.921 115.273 112.614 3.143 1.546 33.894 16.121 75.377 16.228 3.467 9.947 11.258 17.8 25.752 24.922.045.023.091.044.137.066l15.563 7.167a6.027 6.027 0 0 0 3.18.512 18.983 18.983 0 0 0 13.689-7.534c5.362-7.186 6.052-18.568 4.689-32.452 35.527-10.673 72.435-37.033 107.076-76.566a194.625 194.625 0 0 0 21.072-29.157c16.439-27.808 24.074-50.228 27.5-66.528a5.856 5.856 0 0 0 .151-.722 112.039 112.039 0 0 0 2.448-21.048 20.336 20.336 0 0 0 -13.918-19.458c-28.668-9.74-97.116-5.024-158.741 49.1-30.376 26.678-79.842 53.043-142.993 27.142-24.595-10.089-40.814-26.361-46.9-47.058-5.572-18.933-1.952-40.844 9.447-57.183a148.9 148.9 0 0 0 8.973-14.457h.023c22.371 0 60.038-7.69 87.014-53.142 25.468-42.911 50.54-32.86 51.533-32.44a6 6 0 0 0 5.528-10.626c-.643-.38-16.029-9.357-40.44-13.369-22.451-3.69-57.162-3.694-95.036 17.237a3.647 3.647 0 0 1 -3.449.1c-5.375-24.456-25.785-45.57-60.652-62.752a258.171 258.171 0 0 0 -49.744-18.272 6 6 0 0 0 -2.936 11.634c.284.073 28.234 8.237 20.597 58.026zm212.318 320.94c-2.777 13.455-4.535 24.51-4.078 33.89-38.806-.656-67.708-14.879-68.007-15.028-.136-.069-.275-.132-.416-.191-50.693-20.83-85.264-51.378-103.017-90.922a409.105 409.105 0 0 0 45.429 30.8c30.426 17.715 74.479 37.383 120.071 37.383 3.6 0 7.212-.139 10.827-.4-.228 1.436-.488 2.914-.809 4.468zm178.942-73.231a182.541 182.541 0 0 1 -19.767 27.355c-32.53 37.124-66.82 62.023-99.6 72.407-.961-6.328-2.154-13.01-3.389-19.926l-1.21-6.777c-1.008-18.485 2.763-23.487 13.7-32.973 12.335-10.695 22.07-20.3 30.659-28.778 25.979-25.638 43.615-43.034 103.2-64.1-3.975 13.966-11.083 31.635-23.593 52.792zm-310.25-233.768a12.189 12.189 0 0 0 7.016 8.5 15.88 15.88 0 0 0 13.958-.67c27.822-15.376 57.02-20.754 86.78-15.981 4.349.7 8.4 1.573 12.09 2.531-11.142 4.711-24.095 14.982-36.582 36.023-21.176 35.68-48.946 45.785-71.109 47.112a56.919 56.919 0 0 0 3.988-17.6 6 6 0 0 0 -12-.46c-.261 5.767-2.763 18.244-16.412 37.808-13.432 19.254-17.692 45.094-11.117 67.437 4.989 16.954 18.384 40.219 53.861 54.771 29.486 12.1 58.942 14.662 87.552 7.628 23.915-5.879 46.765-18.279 67.915-36.855 32.664-28.69 65.011-40.781 86.393-45.872 27.387-6.521 49.245-4.734 60.568-.885a8.363 8.363 0 0 1 5.78 7.959 96.411 96.411 0 0 1 -1.6 15.718c-67.965 23.1-87.7 42.578-114.861 69.377-8.46 8.348-18.049 17.81-30.092 28.252-13.361 11.586-18.888 20.07-17.871 41.778a19.954 19.954 0 0 0 .269 2.415l1.157 6.734c4.14 23.18 8.42 47.15 2.443 55.159a6.474 6.474 0 0 1 -3.916 2.523l-13.808-6.36c-12.2-6-18.374-11.743-20.466-20.884a5.952 5.952 0 0 0 -.209-.984c-1.6-8.3-.05-19.359 3.331-35.743 5.446-26.38-1.47-39.861-7.5-46.177a5.762 5.762 0 0 0 -9.509 2.011c-.028.075-.057.149-.085.222a5.785 5.785 0 0 0 1.172 5.935c2.442 2.706 5.737 8.323 5.921 19.017-46.845 3.951-93.89-16.706-125.581-35.127a388.317 388.317 0 0 1 -59.645-42.748c-15.136-55.334 3.918-104.739 9.774-114.434 9.765-16.168 16-29.821 18.532-40.581a48.16 48.16 0 0 0 1-5.646 6.009 6.009 0 0 0 -11.947-1.3 49.4 49.4 0 0 1 -2.372 9.785c-12.035-8.839-38.046-32.882-31.968-72.509 3.831-24.974-.556-41.28-6.292-51.552 27.602 10.389 68.25 30.95 75.442 63.673z"/><path d="m325.313 320.63a10.917 10.917 0 1 0 -10.989-10.917 10.966 10.966 0 0 0 10.989 10.917zm0-12a1.086 1.086 0 1 1 -1.011 1.083 1.05 1.05 0 0 1 1.011-1.083z"/><path d="m139.516 337.864a170.344 170.344 0 0 0 64.82 13.22 158.178 158.178 0 0 0 31.883-3.259 6 6 0 1 0 -2.424-11.752 146.137 146.137 0 0 1 -29.459 3.011 158.434 158.434 0 0 1 -60.266-12.321 118.586 118.586 0 0 1 -34.375-21 6 6 0 0 0 -8.01 8.935 130.468 130.468 0 0 0 37.831 23.166z"/><path d="m261.525 339.976a5.974 5.974 0 0 0 2.217-.428c2.789-1.109 5.6-2.318 8.366-3.589a6 6 0 1 0 -5.018-10.9c-2.571 1.183-5.191 2.307-7.785 3.34a6 6 0 0 0 2.22 11.577z"/></g></svg>